<svg width="30" height="30" viewBox="0 0 30 30" fill="none" xmlns="http://www.w3.org/2000/svg">
<g clip-path="url(#clip0_28_175)">
<g filter="url(#filter0_dd_28_175)">
<path d="M4.5 25.5C4.5 26.2956 4.81607 27.0587 5.37868 27.6213C5.94129 28.1839 6.70435 28.5 7.5 28.5H22.5C23.2956 28.5 24.0587 28.1839 24.6213 27.6213C25.1839 27.0587 25.5 26.2956 25.5 25.5V4.5C25.5 3.70435 25.1839 2.94129 24.6213 2.37868C24.0587 1.81607 23.2956 1.5 22.5 1.5H7.5C6.70435 1.5 5.94129 1.81607 5.37868 2.37868C4.81607 2.94129 4.5 3.70435 4.5 4.5V25.5ZM22.5 7.5H15V6H22.5V7.5ZM22.5 10.5H15V9H22.5V10.5ZM22.5 13.5H15V12H22.5V13.5ZM7.5 21H22.5V22.5H7.5V21ZM7.5 18H22.5V19.5H7.5V18ZM7.5 15H22.5V16.5H7.5V15ZM7.5 6H13.5V13.5H7.5V6Z" fill="#1C7FE2"/>
</g>
</g>
<defs>
<filter id="filter0_dd_28_175" x="0.5" y="1.5" width="29" height="35" filterUnits="userSpaceOnUse" color-interpolation-filters="sRGB">
<feFlood flood-opacity="0" result="BackgroundImageFix"/>
<feColorMatrix in="SourceAlpha" type="matrix" values="0 0 0 0 0 0 0 0 0 0 0 0 0 0 0 0 0 0 127 0" result="hardAlpha"/>
<feOffset dy="4"/>
<feGaussianBlur stdDeviation="2"/>
<feComposite in2="hardAlpha" operator="out"/>
<feColorMatrix type="matrix" values="0 0 0 0 0 0 0 0 0 0 0 0 0 0 0 0 0 0 0.25 0"/>
<feBlend mode="normal" in2="BackgroundImageFix" result="effect1_dropShadow_28_175"/>
<feColorMatrix in="SourceAlpha" type="matrix" values="0 0 0 0 0 0 0 0 0 0 0 0 0 0 0 0 0 0 127 0" result="hardAlpha"/>
<feOffset dy="4"/>
<feGaussianBlur stdDeviation="2"/>
<feComposite in2="hardAlpha" operator="out"/>
<feColorMatrix type="matrix" values="0 0 0 0 0 0 0 0 0 0 0 0 0 0 0 0 0 0 0.25 0"/>
<feBlend mode="normal" in2="effect1_dropShadow_28_175" result="effect2_dropShadow_28_175"/>
<feBlend mode="normal" in="SourceGraphic" in2="effect2_dropShadow_28_175" result="shape"/>
</filter>
<clipPath id="clip0_28_175">
<rect width="30" height="30" fill="white"/>
</clipPath>
</defs>
</svg>
