<svg width="30" height="30" viewBox="0 0 30 30" fill="none" xmlns="http://www.w3.org/2000/svg">
<path d="M24.9998 13.7487H27.4998C27.4998 7.33625 22.6586 2.5 16.2373 2.5V5C21.3148 5 24.9998 8.67875 24.9998 13.7487Z" fill="#0FA958"/>
<path d="M16.2504 9.99999C18.8791 9.99999 20.0004 11.1212 20.0004 13.75H22.5004C22.5004 9.71874 20.2816 7.49999 16.2504 7.49999V9.99999ZM20.5279 16.8037C20.2877 16.5854 19.972 16.469 19.6476 16.479C19.3232 16.4891 19.0154 16.6248 18.7891 16.8575L15.7979 19.9337C15.0779 19.7962 13.6304 19.345 12.1404 17.8587C10.6504 16.3675 10.1991 14.9162 10.0654 14.2012L13.1391 11.2087C13.3721 10.9827 13.508 10.6748 13.5181 10.3503C13.5281 10.0257 13.4115 9.71004 13.1929 9.46999L8.5741 4.39124C8.35541 4.15044 8.05145 4.00437 7.72679 3.98407C7.40214 3.96376 7.08235 4.07082 6.83535 4.28249L4.12285 6.60874C3.90674 6.82564 3.77775 7.11431 3.76035 7.41999C3.7416 7.73249 3.3841 15.135 9.1241 20.8775C14.1316 25.8837 20.4041 26.25 22.1316 26.25C22.3841 26.25 22.5391 26.2425 22.5804 26.24C22.886 26.2229 23.1745 26.0933 23.3904 25.8762L25.7154 23.1625C25.9272 22.9157 26.0345 22.596 26.0144 22.2713C25.9943 21.9467 25.8485 21.6426 25.6079 21.4237L20.5279 16.8037Z" fill="#0FA958"/>
</svg>
