<svg width="44" height="35" viewBox="0 0 44 35" fill="none" xmlns="http://www.w3.org/2000/svg">
<path d="M26.8694 21.3281C29.7085 21.3281 32.4313 20.4063 34.4389 18.7653C36.4464 17.1244 37.5742 14.8988 37.5742 12.5781C37.5742 10.2575 36.4464 8.03188 34.4389 6.39094C32.4313 4.75 29.7085 3.82813 26.8694 3.82812H16.8336C16.3013 3.82812 15.7908 4.00098 15.4144 4.30865C15.0379 4.61633 14.8265 5.03363 14.8265 5.46875V18.0469H11.4812C10.9489 18.0469 10.4384 18.2197 10.0619 18.5274C9.68552 18.8351 9.47406 19.2524 9.47406 19.6875C9.47406 20.1226 9.68552 20.5399 10.0619 20.8476C10.4384 21.1553 10.9489 21.3281 11.4812 21.3281H14.8265V23.5156H11.4812C10.9489 23.5156 10.4384 23.6885 10.0619 23.9962C9.68552 24.3038 9.47406 24.7211 9.47406 25.1562C9.47406 25.5914 9.68552 26.0087 10.0619 26.3163C10.4384 26.624 10.9489 26.7969 11.4812 26.7969H14.8265V29.5312C14.8265 29.9664 15.0379 30.3837 15.4144 30.6913C15.7908 30.999 16.3013 31.1719 16.8336 31.1719C17.366 31.1719 17.8765 30.999 18.2529 30.6913C18.6293 30.3837 18.8408 29.9664 18.8408 29.5312V26.7969H26.2004C26.7327 26.7969 27.2432 26.624 27.6196 26.3163C27.996 26.0087 28.2075 25.5914 28.2075 25.1562C28.2075 24.7211 27.996 24.3038 27.6196 23.9962C27.2432 23.6885 26.7327 23.5156 26.2004 23.5156H18.8408V21.3281H26.8694ZM18.8408 7.10938H26.8694C28.6438 7.10938 30.3456 7.68555 31.6003 8.71113C32.855 9.73672 33.5599 11.1277 33.5599 12.5781C33.5599 14.0285 32.855 15.4195 31.6003 16.4451C30.3456 17.4707 28.6438 18.0469 26.8694 18.0469H18.8408V7.10938Z" fill="white"/>
</svg>
